<svg xmlns="http://www.w3.org/2000/svg" viewBox="0 0 664 115.25"><defs><style>.cls-1{fill:#ffdd40;}</style></defs><title>squiggly</title><g id="Layer_2" data-name="Layer 2"><g id="Layer_1-2" data-name="Layer 1"><path class="cls-1" d="M658.07,114.54c-29.2,4.5-30.61-13.91-60.16-13.91s-29.54,14-59.09,14-29.54-14-59.09-14-29.54,14-59.09,14-29.54-14-59.09-14-29.54,14-59.09,14-29.54-14-59.09-14-29.54,14-59.09,14-29.54-14-59.09-14-29.55,14-59.09,14-28.83-9.43-58-13.92C3.57,100,0,103.08,0,98.54S14,94,14,89.45,0,84.9,0,80.36s14-4.55,14-9.09S0,66.73,0,62.18s14-4.54,14-9.09S0,48.55,0,44s14-4.54,14-9.09S0,30.36,0,25.82s14-4.55,14-9.1S1.44,1.4,5.93.71c29.2-4.5,30.61,13.92,60.16,13.92s29.54-14,59.09-14,29.54,14,59.09,14,29.54-14,59.09-14,29.54,14,59.09,14S332,.63,361.54.63s29.54,14,59.09,14,29.54-14,59.09-14,29.54,14,59.09,14,29.55-14,59.09-14,28.83,9.42,58,13.91c4.49.69,8.06-2.37,8.06,2.17s-14,4.55-14,9.1,14,4.54,14,9.08S650,39.44,650,44s14,4.55,14,9.09-14,4.54-14,9.09,14,4.54,14,9.09-14,4.54-14,9.09,14,4.55,14,9.09-14.84,6.22-13.83,10.65C652.08,108.45,662.56,113.85,658.07,114.54Z"/></g></g></svg>